<?xml version="1.0" standalone="no"?>
<!DOCTYPE svg PUBLIC "-//W3C//DTD SVG 20010904//EN"
 "http://www.w3.org/TR/2001/REC-SVG-20010904/DTD/svg10.dtd">
<svg version="1.0" xmlns="http://www.w3.org/2000/svg"
 width="26.000000pt" height="39.000000pt" viewBox="0 0 26.000000 39.000000"
 preserveAspectRatio="xMidYMid meet">
<metadata>
Created by potrace 1.10, written by Peter Selinger 2001-2011
</metadata>
<g transform="translate(0.000000,39.000000) scale(0.050000,-0.050000)"
fill="#000000" stroke="none">
<path d="M40 402 l0 -242 70 0 70 0 0 170 c0 183 5 190 110 150 28 -11 67 -47
86 -80 37 -64 84 -80 84 -28 0 54 -127 164 -206 179 -54 10 -74 24 -74 51 0
21 -9 38 -20 38 -12 0 -20 -87 -20 -220 0 -186 -5 -220 -31 -220 -27 0 -31 32
-28 214 3 144 -3 217 -18 222 -16 5 -23 -64 -23 -234z"/>
<path d="M253 626 c-21 -21 13 -66 51 -66 21 0 66 -27 99 -60 62 -62 97 -76
97 -38 0 55 -214 198 -247 164z"/>
<path d="M259 376 l-9 -94 124 -6 124 -6 -36 -81 c-50 -111 -124 -154 -292
-170 l-140 -13 150 -3 c217 -4 340 86 340 250 l0 67 -106 0 c-107 0 -107 0
-127 75 l-19 75 -9 -94z"/>
<path d="M353 189 c-54 -65 -64 -69 -185 -69 -104 0 -128 -6 -128 -32 0 -73
274 -28 352 57 38 41 68 84 68 95 0 40 -51 16 -107 -51z"/>
</g>
</svg>
