 <svg  version="1.0" xmlns="http://www.w3.org/2000/svg"  width="300.000000pt" height="300.000000pt" viewBox="0 0 300.000000 300.000000"  preserveAspectRatio="xMidYMid meet">  <g transform="translate(0.000000,300.000000) scale(0.100000,-0.100000)" fill="#ffffff" stroke="none"> <path d="M439 1853 c-14 -15 -16 -54 -15 -278 1 -143 3 -285 5 -315 2 -30 0 -63 -4 -73 -4 -11 -3 -23 3 -29 8 -8 8 -17 1 -30 -13 -25 5 -56 37 -64 43 -11 266 3 309 19 93 34 184 116 230 207 l26 52 24 -26 c35 -38 94 -36 127 3 l24 28 17 -28 c29 -51 73 -29 82 40 7 58 15 65 15 14 0 -25 7 -50 19 -64 17 -21 21 -22 46 -11 20 9 31 10 39 2 15 -15 37 -12 57 6 16 15 20 15 41 0 33 -23 82 -20 114 7 l27 23 25 -23 c46 -43 142 -22 142 31 0 13 -7 29 -15 36 -18 15 -11 30 16 30 16 0 19 -7 19 -44 0 -45 18 -76 45 -76 22 0 45 41 46 85 l1 40 10 -37 c21 -80 94 -114 149 -69 24 19 24 19 46 -1 20 -19 26 -20 48 -8 20 10 28 11 37 2 15 -15 45 -15 50 -1 3 9 9 9 25 0 29 -15 120 -14 130 2 4 6 8 49 9 95 0 70 -2 85 -17 93 -28 15 -101 11 -120 -7 -16 -15 -20 -15 -41 0 -26 19 -99 21 -116 4 -9 -9 -18 -8 -38 2 -24 13 -28 13 -45 -9 l-20 -24 -20 21 c-23 25 -24 25 -49 12 -13 -7 -21 -7 -25 0 -8 12 -100 13 -123 1 -12 -6 -26 -5 -42 5 -14 7 -23 14 -20 14 45 11 70 12 102 4 23 -5 33 -1 57 25 36 38 74 41 96 7 21 -32 61 -41 90 -22 19 13 27 13 37 3 7 -6 20 -13 27 -15 19 -4 61 26 61 43 0 13 3 13 25 -1 22 -15 28 -15 47 -2 21 14 23 13 33 -5 16 -32 62 -43 86 -21 17 15 19 31 19 144 0 144 -4 153 -66 148 -37 -3 -63 -27 -88 -81 -5 -9 -7 -9 -12 0 -25 55 -51 78 -89 81 -56 5 -65 -12 -66 -127 l-1 -96 -39 85 c-62 136 -61 135 -98 138 -46 5 -62 -14 -106 -118 -34 -82 -50 -101 -68 -84 -3 3 -1 17 6 31 8 18 8 29 0 42 -8 13 -7 22 3 36 19 25 18 69 -2 85 -19 16 -191 15 -211 -2 -7 -6 -13 -21 -13 -34 0 -31 -5 -30 -39 8 -26 29 -36 32 -107 39 -100 10 -121 -1 -126 -63 l-3 -43 -19 32 c-31 50 -82 73 -164 73 -96 0 -102 -9 -102 -155 l-1 -110 -19 54 c-33 93 -116 183 -209 228 -52 26 -67 28 -206 31 -136 3 -152 2 -166 -15z m371 -49 c97 -51 164 -133 194 -236 50 -173 -34 -356 -202 -440 -42 -20 -63 -23 -199 -26 -131 -3 -153 -1 -153 12 0 12 24 15 143 18 129 3 147 5 198 29 73 34 129 91 165 165 40 83 40 193 2 276 -35 76 -98 142 -167 175 -51 25 -68 27 -198 31 -118 4 -143 7 -143 19 0 13 22 14 153 11 144 -5 155 -6 207 -34z m426 -31 c69 -35 85 -123 35 -183 -28 -34 -31 -35 -115 -39 l-86 -3 0 119 c0 66 2 122 4 124 10 10 134 -4 162 -18z m298 -1 c40 -36 39 -99 -1 -129 -14 -11 -14 -16 8 -48 13 -19 28 -35 32 -35 5 0 6 -4 3 -8 -13 -21 -67 1 -94 39 -18 26 -35 39 -51 39 -22 0 -23 -3 -18 -40 5 -39 4 -40 -24 -40 l-29 0 0 123 0 122 77 -3 c55 -3 84 -9 97 -20z m526 -102 c28 -62 50 -115 50 -117 0 -2 -13 -3 -30 -3 -23 0 -31 5 -36 25 -6 23 -11 25 -60 25 -48 0 -56 -3 -65 -24 -11 -24 -75 -46 -65 -22 2 6 20 47 39 91 19 44 42 97 50 117 14 33 18 36 41 30 22 -6 35 -26 76 -122z m-1450 84 c0 -23 -3 -24 -56 -24 -47 0 -55 -3 -50 -16 3 -9 6 -92 6 -185 l0 -169 25 0 25 0 0 170 0 170 74 0 c41 0 86 -4 100 -10 41 -15 108 -82 127 -128 26 -61 25 -73 -8 -69 -19 2 -29 11 -34 30 -19 70 -94 127 -169 127 l-40 0 0 -170 0 -170 -77 0 -78 0 2 237 c2 131 3 238 3 238 0 0 34 -1 75 -3 72 -3 75 -5 75 -28z m1210 10 c0 -26 0 -26 -70 -22 l-70 4 0 -28 c0 -28 1 -28 60 -28 53 0 60 -2 60 -20 0 -18 -7 -20 -60 -20 l-60 0 0 -31 0 -30 68 2 c62 2 67 1 70 -19 3 -21 0 -22 -95 -22 l-98 0 0 120 0 120 98 0 97 0 0 -26z m435 -39 c15 -36 30 -65 34 -65 3 0 20 29 36 65 28 61 32 65 65 65 l35 0 0 -120 0 -120 -29 0 -28 0 4 75 c2 41 1 75 -2 75 -3 0 -20 -29 -38 -65 -17 -36 -36 -65 -42 -65 -5 0 -25 30 -44 68 l-35 67 -1 -77 c0 -76 -1 -78 -25 -78 l-25 0 0 120 0 120 33 0 c32 0 35 -3 62 -65z m-1465 15 c20 -10 58 -42 83 -70 132 -147 88 -386 -89 -475 -56 -28 -67 -30 -196 -33 -121 -3 -138 -2 -138 12 0 14 16 16 113 16 74 0 132 5 166 16 106 31 191 146 191 256 0 134 -96 254 -217 274 -38 6 -53 20 -38 36 9 9 82 -10 125 -32z m802 -111 c-4 -37 -6 -39 -20 -26 -14 14 -13 18 2 41 9 14 18 26 19 26 1 0 1 -18 -1 -41z m-237 -105 c10 -8 26 -14 34 -14 19 0 61 39 61 57 0 8 14 -2 31 -22 34 -39 68 -44 102 -16 15 12 19 12 35 -2 12 -11 36 -17 72 -17 l53 0 -38 -26 c-37 -25 -37 -25 -52 -5 -8 12 -19 21 -25 21 -22 0 -48 -34 -49 -64 l-2 -31 -4 30 c-5 31 -29 65 -46 65 -6 0 -18 -7 -28 -16 -16 -14 -20 -14 -43 1 -19 13 -37 16 -68 11 -50 -7 -46 -7 -121 0 -37 4 -63 2 -72 -6 -10 -8 -19 -8 -34 -1 -28 15 -63 14 -89 -5 -22 -15 -22 -14 -22 22 0 35 1 36 18 21 48 -43 195 -6 237 59 l20 31 6 -40 c3 -22 14 -46 24 -53z m-639 76 c31 -12 49 -34 81 -99 20 -40 21 -47 8 -61 -8 -9 -15 -22 -15 -28 0 -20 -54 -75 -87 -88 -64 -27 -63 -30 -63 136 l0 150 24 0 c14 0 37 -5 52 -10z m438 -136 c9 -3 16 -13 16 -21 0 -11 -8 -12 -36 -7 -29 5 -36 4 -32 -7 3 -8 13 -16 24 -18 24 -4 54 -30 54 -47 0 -21 -30 -44 -56 -44 -37 0 -64 17 -57 36 4 11 9 12 16 5 6 -6 24 -11 40 -11 38 0 31 21 -11 32 -41 11 -56 38 -36 66 15 22 47 28 78 16z m166 -9 c0 -9 -10 -15 -26 -15 -26 0 -26 0 -19 -60 7 -56 6 -60 -14 -60 -19 0 -21 6 -21 60 0 53 -2 60 -20 60 -11 0 -20 7 -20 15 0 12 13 15 60 15 47 0 60 -3 60 -15z m131 5 c25 -14 26 -65 2 -79 -17 -9 -16 -12 6 -35 24 -25 24 -26 4 -26 -11 0 -28 11 -37 25 -21 32 -48 33 -44 3 2 -15 -3 -24 -14 -26 -16 -3 -18 5 -18 66 0 38 3 72 7 75 10 11 72 8 94 -3z m89 -37 c0 -59 10 -76 41 -71 22 3 24 9 27 61 2 42 7 57 17 57 12 0 15 -14 15 -59 0 -51 -3 -62 -22 -75 -33 -23 -74 -20 -92 6 -22 30 -22 128 -1 128 11 0 15 -12 15 -47z m255 34 c11 -9 15 -19 10 -26 -5 -9 -10 -10 -18 -2 -15 15 -50 14 -65 -1 -29 -29 -7 -78 34 -78 13 0 26 5 30 11 4 8 10 7 18 -1 15 -15 -18 -40 -55 -40 -31 0 -83 54 -75 77 4 8 6 19 6 23 0 5 10 18 22 30 25 23 66 26 93 7z m155 -2 c0 -8 -9 -15 -20 -15 -18 0 -20 -7 -20 -61 0 -51 -3 -60 -17 -57 -14 2 -16 13 -14 61 2 55 2 57 -23 57 -16 0 -26 6 -26 15 0 12 13 15 60 15 47 0 60 -3 60 -15z m65 -33 c-4 -58 4 -75 36 -70 22 3 24 9 27 61 2 42 7 57 17 57 11 0 15 -14 15 -57 0 -65 -18 -93 -60 -93 -47 0 -63 21 -68 89 -4 56 -3 61 16 61 19 0 20 -5 17 -48z m243 32 c26 -18 28 -41 5 -66 -15 -17 -15 -19 0 -36 22 -24 21 -32 -1 -32 -10 0 -25 11 -32 25 -7 14 -21 25 -30 25 -13 0 -16 -6 -12 -25 3 -18 0 -25 -11 -25 -12 0 -16 16 -19 75 l-3 75 40 0 c22 0 51 -7 63 -16z m172 1 c0 -11 -11 -15 -40 -15 -29 0 -40 -4 -40 -15 0 -10 11 -15 35 -15 24 0 35 -5 35 -15 0 -10 -11 -15 -35 -15 -24 0 -35 -5 -35 -15 0 -11 11 -15 40 -15 29 0 40 -4 40 -15 0 -12 -13 -15 -55 -15 l-55 0 0 75 0 75 55 0 c42 0 55 -3 55 -15z m-1550 -30 c0 -30 -43 -106 -78 -136 -56 -50 -87 -58 -223 -60 l-124 -1 -3 26 -3 26 123 0 c107 0 127 3 158 21 33 20 79 66 80 81 0 4 4 18 10 32 11 29 60 38 60 11z m330 -33 c0 -8 -1 -13 -3 -11 -1 2 -9 12 -16 22 -12 15 -12 17 3 11 9 -3 16 -13 16 -22z m565 -2 c-3 -5 -13 -10 -21 -10 -8 0 -14 5 -14 10 0 6 9 10 21 10 11 0 17 -4 14 -10z"/> <path d="M1130 1668 l0 -78 35 0 c22 0 43 8 55 20 52 52 26 120 -49 131 l-41 5 0 -78z m70 28 c18 -23 8 -61 -17 -64 -21 -3 -23 1 -23 37 0 43 17 54 40 27z"/> <path d="M1410 1708 l0 -38 45 0 c40 0 45 3 51 26 8 33 -1 41 -53 46 l-43 4 0 -38z"/> <path d="M1967 1708 c-3 -13 -8 -32 -12 -43 -5 -17 -2 -20 25 -19 32 1 33 4 19 42 -5 13 -9 28 -9 33 0 19 -18 8 -23 -13z"/> <path d="M1380 1415 c0 -23 4 -26 28 -23 19 2 27 9 27 23 0 14 -8 21 -27 23 -24 3 -28 0 -28 -23z"/> <path d="M2182 1418 c3 -25 33 -34 57 -19 23 15 5 41 -29 41 -27 0 -31 -3 -28 -22z"/> <path d="M1052 1238 c-27 -27 -11 -158 19 -158 24 0 39 35 39 89 0 55 -11 81 -35 81 -6 0 -16 -5 -23 -12z m38 -73 c0 -42 -3 -55 -15 -55 -12 0 -15 13 -15 55 0 42 3 55 15 55 12 0 15 -13 15 -55z"/> <path d="M1177 1232 c-23 -26 -22 -103 1 -132 16 -19 22 -21 40 -11 17 9 26 9 42 -1 19 -11 24 -10 41 11 24 29 26 112 3 135 -18 19 -40 21 -50 5 -4 -8 -9 -8 -17 0 -16 16 -42 13 -60 -7z m113 -68 c0 -30 -4 -54 -10 -54 -5 0 -22 18 -36 40 -15 22 -29 40 -32 40 -2 0 -2 -18 1 -40 4 -30 2 -40 -9 -40 -10 0 -14 14 -14 55 0 66 19 74 51 20 26 -43 31 -44 29 -2 -3 44 -2 49 10 42 6 -3 10 -31 10 -61z"/> <path d="M1372 1238 c-16 -16 -15 -43 3 -58 8 -7 15 -25 15 -40 0 -15 8 -34 18 -43 16 -15 20 -15 40 -1 12 8 22 26 22 39 0 13 8 37 17 53 14 25 15 32 4 46 -16 19 -101 22 -119 4z m106 -27 c2 -6 -6 -11 -17 -11 -18 0 -21 -6 -21 -45 0 -25 -4 -45 -10 -45 -5 0 -10 20 -10 45 0 38 -3 45 -20 45 -18 0 -26 10 -16 21 9 9 90 1 94 -10z"/> <path d="M1550 1231 c-17 -33 -12 -116 8 -134 20 -18 78 -22 101 -8 17 11 23 128 8 149 -5 6 -31 12 -58 12 -38 0 -51 -4 -59 -19z m110 -22 c0 -5 -16 -9 -35 -9 -19 0 -35 -4 -35 -10 0 -5 14 -10 30 -10 17 0 30 -4 30 -10 0 -5 -14 -10 -31 -10 -20 0 -29 -4 -26 -12 2 -7 17 -13 32 -13 16 0 30 -6 32 -12 3 -9 -9 -13 -41 -13 l-46 0 0 54 0 55 38 3 c41 4 52 1 52 -13z"/> <path d="M1741 1241 c-8 -5 -16 -32 -19 -63 -3 -42 0 -58 15 -77 16 -19 23 -22 39 -13 12 7 25 7 37 0 28 -14 44 5 51 63 6 45 4 55 -15 75 -23 25 -80 33 -108 15z m97 -50 c2 -13 -1 -28 -7 -34 -8 -8 -6 -16 6 -29 15 -17 15 -18 0 -18 -9 0 -22 9 -29 20 -15 24 -40 27 -36 4 2 -10 -3 -19 -9 -21 -10 -3 -13 11 -13 52 l0 56 43 -3 c35 -3 43 -7 45 -27z"/> <path d="M1770 1185 c0 -9 9 -15 25 -15 16 0 25 6 25 15 0 9 -9 15 -25 15 -16 0 -25 -6 -25 -15z"/> <path d="M1932 1238 c-18 -18 -15 -123 4 -142 34 -34 54 -8 54 69 0 58 -11 85 -35 85 -6 0 -16 -5 -23 -12z m38 -73 c0 -42 -3 -55 -15 -55 -12 0 -15 13 -15 55 0 42 3 55 15 55 12 0 15 -13 15 -55z"/> <path d="M2102 1227 c-49 -52 -12 -147 58 -147 72 0 110 105 54 149 -36 28 -85 27 -112 -2z m92 -18 c14 -11 26 -29 26 -40 0 -25 -35 -59 -60 -59 -24 0 -60 34 -60 55 0 17 43 65 58 65 5 0 21 -9 36 -21z"/> <path d="M2137 1193 c-16 -15 -6 -52 15 -59 28 -9 52 20 37 47 -10 19 -39 25 -52 12z"/> <path d="M2322 1238 c-7 -7 -12 -37 -12 -68 0 -44 5 -61 20 -75 16 -14 23 -15 34 -6 11 9 19 9 34 0 26 -16 54 4 51 35 -1 12 1 34 6 49 11 42 -25 77 -80 77 -22 0 -46 -5 -53 -12z m105 -34 c3 -9 1 -25 -6 -36 -9 -15 -9 -23 0 -34 20 -24 0 -29 -24 -6 -29 27 -37 28 -37 2 0 -11 -4 -20 -10 -20 -5 0 -10 25 -10 55 l0 55 40 0 c28 0 43 -5 47 -16z"/> <path d="M2360 1185 c0 -9 9 -15 25 -15 16 0 25 6 25 15 0 9 -9 15 -25 15 -16 0 -25 -6 -25 -15z"/> <path d="M2792 215 c-23 -24 -42 -47 -42 -52 0 -5 19 -28 43 -51 l43 -42 46 48 47 47 -47 47 -48 46 -42 -43z m100 -44 l23 -8 -23 -7 c-13 -4 -32 -21 -42 -38 -17 -29 -18 -29 -25 -8 -4 12 -21 30 -38 41 -18 10 -26 19 -18 19 20 0 61 40 61 59 0 9 9 1 20 -17 11 -18 30 -36 42 -41z"/> </g> </svg> 